<svg xmlns="http://www.w3.org/2000/svg" xmlns:xlink="http://www.w3.org/1999/xlink" width="1080" zoomAndPan="magnify" viewBox="0 0 810 809.999993" height="1080" preserveAspectRatio="xMidYMid meet" version="1.0"><defs><clipPath id="4a39e7f17b"><path d="M 36.679688 329 L 773.179688 329 L 773.179688 701 L 36.679688 701 Z M 36.679688 329 " clip-rule="nonzero"/></clipPath><clipPath id="afebb943de"><path d="M 36.679688 572 L 773.179688 572 L 773.179688 601 L 36.679688 601 Z M 36.679688 572 " clip-rule="nonzero"/></clipPath><clipPath id="501ed4d064"><path d="M 109 672 L 293 672 L 293 766.296875 L 109 766.296875 Z M 109 672 " clip-rule="nonzero"/></clipPath><clipPath id="2709cbb791"><path d="M 517 672 L 701 672 L 701 766.296875 L 517 766.296875 Z M 517 672 " clip-rule="nonzero"/></clipPath><clipPath id="0bde0c1b40"><path d="M 36.679688 738 L 773.179688 738 L 773.179688 766.296875 L 36.679688 766.296875 Z M 36.679688 738 " clip-rule="nonzero"/></clipPath></defs><g clip-path="url(#4a39e7f17b)"><path fill="#000000" d="M 758.914062 700.691406 L 50.945312 700.691406 C 43.160156 700.691406 36.851562 694.378906 36.851562 686.585938 L 36.851562 586.628906 C 36.851562 585.449219 37 584.265625 37.296875 583.128906 L 99.511719 340.46875 C 101.105469 334.234375 106.726562 329.871094 113.160156 329.871094 L 696.695312 329.871094 C 703.128906 329.871094 708.746094 334.234375 710.34375 340.46875 L 772.558594 583.128906 C 772.855469 584.265625 773.003906 585.445312 773.003906 586.628906 L 773.003906 686.585938 C 773.007812 694.378906 766.699219 700.691406 758.914062 700.691406 Z M 65.039062 672.484375 L 744.820312 672.484375 L 744.820312 588.410156 L 685.769531 358.082031 L 124.089844 358.082031 L 65.039062 588.410156 Z M 65.039062 672.484375 " fill-opacity="1" fill-rule="nonzero"/></g><g clip-path="url(#afebb943de)"><path fill="#000000" d="M 758.914062 600.734375 L 50.945312 600.734375 C 43.160156 600.734375 36.851562 594.421875 36.851562 586.628906 C 36.851562 578.835938 43.160156 572.523438 50.945312 572.523438 L 758.914062 572.523438 C 766.699219 572.523438 773.007812 578.835938 773.007812 586.628906 C 773.007812 594.421875 766.699219 600.734375 758.914062 600.734375 Z M 758.914062 600.734375 " fill-opacity="1" fill-rule="nonzero"/></g><g clip-path="url(#501ed4d064)"><path fill="#000000" d="M 278.546875 766.242188 L 123.734375 766.242188 C 115.949219 766.242188 109.640625 759.929688 109.640625 752.136719 L 109.640625 686.585938 C 109.640625 678.796875 115.949219 672.484375 123.734375 672.484375 L 278.546875 672.484375 C 286.335938 672.484375 292.640625 678.796875 292.640625 686.585938 L 292.640625 752.136719 C 292.640625 759.929688 286.335938 766.242188 278.546875 766.242188 Z M 137.828125 738.035156 L 264.453125 738.035156 L 264.453125 700.691406 L 137.828125 700.691406 Z M 137.828125 738.035156 " fill-opacity="1" fill-rule="nonzero"/></g><g clip-path="url(#2709cbb791)"><path fill="#000000" d="M 686.121094 766.242188 L 531.300781 766.242188 C 523.511719 766.242188 517.203125 759.929688 517.203125 752.136719 L 517.203125 686.585938 C 517.203125 678.796875 523.511719 672.484375 531.300781 672.484375 L 686.121094 672.484375 C 693.910156 672.484375 700.21875 678.796875 700.21875 686.585938 L 700.21875 752.136719 C 700.21875 759.929688 693.910156 766.242188 686.121094 766.242188 Z M 545.394531 738.035156 L 672.027344 738.035156 L 672.027344 700.691406 L 545.394531 700.691406 Z M 545.394531 738.035156 " fill-opacity="1" fill-rule="nonzero"/></g><g clip-path="url(#0bde0c1b40)"><path fill="#000000" d="M 758.914062 766.242188 L 50.945312 766.242188 C 43.160156 766.242188 36.851562 759.929688 36.851562 752.136719 C 36.851562 744.347656 43.160156 738.035156 50.945312 738.035156 L 758.914062 738.035156 C 766.699219 738.035156 773.007812 744.347656 773.007812 752.136719 C 773.007812 759.929688 766.699219 766.242188 758.914062 766.242188 Z M 758.914062 766.242188 " fill-opacity="1" fill-rule="nonzero"/></g><path fill="#000000" d="M 607.359375 244.875 L 320.96875 244.875 C 299.40625 244.875 281.863281 227.308594 281.863281 205.726562 L 281.863281 84.5 C 281.863281 62.917969 299.40625 45.355469 320.96875 45.355469 L 607.355469 45.355469 C 628.917969 45.355469 646.464844 62.917969 646.464844 84.5 L 646.464844 205.726562 C 646.464844 227.308594 628.917969 244.875 607.359375 244.875 Z M 320.96875 73.5625 C 314.945312 73.5625 310.050781 78.46875 310.050781 84.5 L 310.050781 205.730469 C 310.050781 211.761719 314.945312 216.667969 320.96875 216.667969 L 607.355469 216.667969 C 613.378906 216.667969 618.273438 211.761719 618.273438 205.730469 L 618.273438 84.5 C 618.273438 78.46875 613.375 73.5625 607.355469 73.5625 Z M 320.96875 73.5625 " fill-opacity="1" fill-rule="nonzero"/><path fill="#000000" d="M 696.695312 358.082031 L 113.160156 358.082031 C 105.375 358.082031 99.066406 351.765625 99.066406 343.976562 L 99.066406 209.914062 C 99.066406 202.125 105.375 195.808594 113.160156 195.808594 L 296.367188 195.808594 C 303.25 195.808594 309.121094 200.777344 310.269531 207.566406 C 311.152344 212.835938 315.660156 216.664062 320.96875 216.664062 L 607.355469 216.664062 C 612.664062 216.664062 617.175781 212.835938 618.054688 207.566406 C 619.203125 200.777344 625.074219 195.808594 631.957031 195.808594 L 696.695312 195.808594 C 704.480469 195.808594 710.789062 202.125 710.789062 209.914062 L 710.789062 343.976562 C 710.792969 351.761719 704.484375 358.082031 696.695312 358.082031 Z M 127.253906 329.871094 L 682.601562 329.871094 L 682.601562 224.015625 L 641.902344 224.015625 C 635.316406 236.582031 622.222656 244.875 607.359375 244.875 L 320.96875 244.875 C 306.105469 244.875 293.007812 236.582031 286.425781 224.015625 L 127.253906 224.015625 Z M 127.253906 329.871094 " fill-opacity="1" fill-rule="nonzero"/><path fill="#000000" d="M 405.078125 421.144531 L 362.40625 421.144531 C 354.617188 421.144531 348.308594 414.824219 348.308594 407.039062 C 348.308594 399.25 354.617188 392.933594 362.40625 392.933594 L 405.078125 392.933594 C 412.863281 392.933594 419.171875 399.25 419.171875 407.039062 C 419.171875 414.824219 412.863281 421.144531 405.078125 421.144531 Z M 405.078125 421.144531 " fill-opacity="1" fill-rule="nonzero"/><path fill="#000000" d="M 517.214844 421.144531 L 474.554688 421.144531 C 466.765625 421.144531 460.457031 414.824219 460.457031 407.039062 C 460.457031 399.25 466.765625 392.933594 474.554688 392.933594 L 517.214844 392.933594 C 525.003906 392.933594 531.308594 399.25 531.308594 407.039062 C 531.308594 414.824219 525.003906 421.144531 517.214844 421.144531 Z M 517.214844 421.144531 " fill-opacity="1" fill-rule="nonzero"/><path fill="#000000" d="M 629.363281 421.144531 L 586.691406 421.144531 C 578.902344 421.144531 572.597656 414.824219 572.597656 407.039062 C 572.597656 399.25 578.902344 392.933594 586.691406 392.933594 L 629.363281 392.933594 C 637.152344 392.933594 643.460938 399.25 643.460938 407.039062 C 643.460938 414.824219 637.152344 421.144531 629.363281 421.144531 Z M 629.363281 421.144531 " fill-opacity="1" fill-rule="nonzero"/><path fill="#000000" d="M 405.078125 475.265625 L 362.40625 475.265625 C 354.617188 475.265625 348.308594 468.953125 348.308594 461.160156 C 348.308594 453.367188 354.617188 447.054688 362.40625 447.054688 L 405.078125 447.054688 C 412.863281 447.054688 419.171875 453.367188 419.171875 461.160156 C 419.171875 468.953125 412.863281 475.265625 405.078125 475.265625 Z M 405.078125 475.265625 " fill-opacity="1" fill-rule="nonzero"/><path fill="#000000" d="M 517.214844 475.265625 L 474.554688 475.265625 C 466.765625 475.265625 460.457031 468.953125 460.457031 461.160156 C 460.457031 453.367188 466.765625 447.054688 474.554688 447.054688 L 517.214844 447.054688 C 525.003906 447.054688 531.308594 453.367188 531.308594 461.160156 C 531.308594 468.953125 525.003906 475.265625 517.214844 475.265625 Z M 517.214844 475.265625 " fill-opacity="1" fill-rule="nonzero"/><path fill="#000000" d="M 629.363281 475.265625 L 586.691406 475.265625 C 578.902344 475.265625 572.597656 468.953125 572.597656 461.160156 C 572.597656 453.367188 578.902344 447.054688 586.691406 447.054688 L 629.363281 447.054688 C 637.152344 447.054688 643.460938 453.367188 643.460938 461.160156 C 643.460938 468.953125 637.152344 475.265625 629.363281 475.265625 Z M 629.363281 475.265625 " fill-opacity="1" fill-rule="nonzero"/><path fill="#000000" d="M 405.078125 529.386719 L 362.40625 529.386719 C 354.617188 529.386719 348.308594 523.074219 348.308594 515.28125 C 348.308594 507.488281 354.617188 501.179688 362.40625 501.179688 L 405.078125 501.179688 C 412.863281 501.179688 419.171875 507.488281 419.171875 515.28125 C 419.171875 523.074219 412.863281 529.386719 405.078125 529.386719 Z M 405.078125 529.386719 " fill-opacity="1" fill-rule="nonzero"/><path fill="#000000" d="M 517.214844 529.386719 L 474.554688 529.386719 C 466.765625 529.386719 460.457031 523.074219 460.457031 515.28125 C 460.457031 507.488281 466.765625 501.179688 474.554688 501.179688 L 517.214844 501.179688 C 525.003906 501.179688 531.308594 507.488281 531.308594 515.28125 C 531.308594 523.074219 525.003906 529.386719 517.214844 529.386719 Z M 517.214844 529.386719 " fill-opacity="1" fill-rule="nonzero"/><path fill="#000000" d="M 629.363281 529.386719 L 586.691406 529.386719 C 578.902344 529.386719 572.597656 523.074219 572.597656 515.28125 C 572.597656 507.488281 578.902344 501.179688 586.691406 501.179688 L 629.363281 501.179688 C 637.152344 501.179688 643.460938 507.488281 643.460938 515.28125 C 643.460938 523.074219 637.152344 529.386719 629.363281 529.386719 Z M 629.363281 529.386719 " fill-opacity="1" fill-rule="nonzero"/><path fill="#000000" d="M 256.8125 505.550781 L 141.351562 505.550781 C 133.5625 505.550781 127.253906 499.238281 127.253906 491.445312 C 127.253906 483.652344 133.5625 477.339844 141.351562 477.339844 L 242.71875 477.339844 L 242.71875 421.140625 L 159.894531 421.140625 C 152.109375 421.140625 145.800781 414.824219 145.800781 407.039062 C 145.800781 399.25 152.109375 392.933594 159.894531 392.933594 L 256.8125 392.933594 C 264.601562 392.933594 270.910156 399.25 270.910156 407.039062 L 270.910156 491.445312 C 270.910156 499.238281 264.601562 505.550781 256.8125 505.550781 Z M 256.8125 505.550781 " fill-opacity="1" fill-rule="nonzero"/><path fill="#000000" d="M 381.578125 156.210938 C 377.976562 156.210938 374.367188 154.832031 371.613281 152.078125 C 366.105469 146.570312 366.105469 137.640625 371.613281 132.132812 L 454.199219 49.488281 C 459.703125 43.976562 468.625 43.976562 474.128906 49.488281 C 479.632812 54.996094 479.632812 63.921875 474.128906 69.433594 L 391.546875 152.078125 C 388.792969 154.832031 385.179688 156.210938 381.578125 156.210938 Z M 381.578125 156.210938 " fill-opacity="1" fill-rule="nonzero"/><path fill="#000000" d="M 464.164062 178.335938 C 460.550781 178.335938 456.949219 176.960938 454.199219 174.203125 C 448.691406 168.695312 448.691406 159.765625 454.199219 154.257812 L 500.082031 108.347656 C 505.597656 102.839844 514.519531 102.851562 520.015625 108.347656 C 525.519531 113.855469 525.519531 122.785156 520.015625 128.292969 L 474.128906 174.203125 C 471.378906 176.957031 467.765625 178.335938 464.164062 178.335938 Z M 464.164062 178.335938 " fill-opacity="1" fill-rule="nonzero"/></svg>