<svg xmlns="http://www.w3.org/2000/svg" xmlns:xlink="http://www.w3.org/1999/xlink" width="1080" zoomAndPan="magnify" viewBox="0 0 810 809.999993" height="1080" preserveAspectRatio="xMidYMid meet" version="1.0"><defs><g/><clipPath id="48d663a9eb"><path d="M 71.898438 363 L 338.898438 363 L 338.898438 498 L 71.898438 498 Z M 71.898438 363 " clip-rule="nonzero"/></clipPath><clipPath id="5ac550e579"><path d="M 71.898438 451 L 338.898438 451 L 338.898438 462 L 71.898438 462 Z M 71.898438 451 " clip-rule="nonzero"/></clipPath><clipPath id="abad93c164"><path d="M 98 487 L 165 487 L 165 521.441406 L 98 521.441406 Z M 98 487 " clip-rule="nonzero"/></clipPath><clipPath id="e4d4c06476"><path d="M 246 487 L 313 487 L 313 521.441406 L 246 521.441406 Z M 246 487 " clip-rule="nonzero"/></clipPath><clipPath id="5cb658b460"><path d="M 71.898438 511 L 338.898438 511 L 338.898438 521.441406 L 71.898438 521.441406 Z M 71.898438 511 " clip-rule="nonzero"/></clipPath></defs><g clip-path="url(#48d663a9eb)"><path fill="#000000" d="M 333.726562 497.667969 L 77.066406 497.667969 C 74.246094 497.667969 71.957031 495.378906 71.957031 492.554688 L 71.957031 456.328125 C 71.957031 455.902344 72.011719 455.472656 72.121094 455.0625 L 94.675781 367.121094 C 95.253906 364.859375 97.289062 363.28125 99.621094 363.28125 L 311.171875 363.28125 C 313.503906 363.28125 315.542969 364.859375 316.121094 367.121094 L 338.675781 455.0625 C 338.78125 455.472656 338.835938 455.902344 338.835938 456.328125 L 338.835938 492.554688 C 338.839844 495.378906 336.550781 497.667969 333.726562 497.667969 Z M 82.175781 487.445312 L 328.617188 487.445312 L 328.617188 456.976562 L 307.210938 373.503906 L 103.585938 373.503906 L 82.175781 456.976562 Z M 82.175781 487.445312 " fill-opacity="1" fill-rule="nonzero"/></g><g clip-path="url(#5ac550e579)"><path fill="#000000" d="M 333.726562 461.441406 L 77.066406 461.441406 C 74.246094 461.441406 71.957031 459.152344 71.957031 456.328125 C 71.957031 453.507812 74.246094 451.21875 77.066406 451.21875 L 333.726562 451.21875 C 336.550781 451.21875 338.839844 453.507812 338.839844 456.328125 C 338.839844 459.152344 336.550781 461.441406 333.726562 461.441406 Z M 333.726562 461.441406 " fill-opacity="1" fill-rule="nonzero"/></g><g clip-path="url(#abad93c164)"><path fill="#000000" d="M 159.582031 521.425781 L 103.457031 521.425781 C 100.632812 521.425781 98.347656 519.136719 98.347656 516.3125 L 98.347656 492.554688 C 98.347656 489.730469 100.632812 487.445312 103.457031 487.445312 L 159.582031 487.445312 C 162.402344 487.445312 164.691406 489.730469 164.691406 492.554688 L 164.691406 516.3125 C 164.691406 519.136719 162.402344 521.425781 159.582031 521.425781 Z M 108.566406 511.199219 L 154.46875 511.199219 L 154.46875 497.667969 L 108.566406 497.667969 Z M 108.566406 511.199219 " fill-opacity="1" fill-rule="nonzero"/></g><g clip-path="url(#e4d4c06476)"><path fill="#000000" d="M 307.339844 521.425781 L 251.210938 521.425781 C 248.386719 521.425781 246.101562 519.136719 246.101562 516.3125 L 246.101562 492.554688 C 246.101562 489.730469 248.386719 487.445312 251.210938 487.445312 L 307.339844 487.445312 C 310.164062 487.445312 312.449219 489.730469 312.449219 492.554688 L 312.449219 516.3125 C 312.449219 519.136719 310.164062 521.425781 307.339844 521.425781 Z M 256.320312 511.199219 L 302.230469 511.199219 L 302.230469 497.667969 L 256.320312 497.667969 Z M 256.320312 511.199219 " fill-opacity="1" fill-rule="nonzero"/></g><g clip-path="url(#5cb658b460)"><path fill="#000000" d="M 333.726562 521.425781 L 77.066406 521.425781 C 74.246094 521.425781 71.957031 519.136719 71.957031 516.3125 C 71.957031 513.488281 74.246094 511.199219 77.066406 511.199219 L 333.726562 511.199219 C 336.550781 511.199219 338.839844 513.488281 338.839844 516.3125 C 338.839844 519.136719 336.550781 521.425781 333.726562 521.425781 Z M 333.726562 521.425781 " fill-opacity="1" fill-rule="nonzero"/></g><path fill="#000000" d="M 278.785156 332.476562 L 174.960938 332.476562 C 167.144531 332.476562 160.78125 326.109375 160.78125 318.289062 L 160.78125 274.355469 C 160.78125 266.53125 167.144531 260.167969 174.960938 260.167969 L 278.785156 260.167969 C 286.601562 260.167969 292.960938 266.53125 292.960938 274.355469 L 292.960938 318.289062 C 292.960938 326.109375 286.601562 332.476562 278.785156 332.476562 Z M 174.960938 270.390625 C 172.777344 270.390625 171 272.167969 171 274.355469 L 171 318.289062 C 171 320.472656 172.777344 322.253906 174.960938 322.253906 L 278.785156 322.253906 C 280.96875 322.253906 282.742188 320.472656 282.742188 318.289062 L 282.742188 274.355469 C 282.742188 272.167969 280.964844 270.390625 278.785156 270.390625 Z M 174.960938 270.390625 " fill-opacity="1" fill-rule="nonzero"/><path fill="#000000" d="M 311.171875 373.503906 L 99.621094 373.503906 C 96.800781 373.503906 94.511719 371.214844 94.511719 368.390625 L 94.511719 319.804688 C 94.511719 316.984375 96.800781 314.691406 99.621094 314.691406 L 166.042969 314.691406 C 168.535156 314.691406 170.664062 316.496094 171.082031 318.953125 C 171.402344 320.863281 173.035156 322.25 174.960938 322.25 L 278.785156 322.25 C 280.710938 322.25 282.34375 320.863281 282.664062 318.953125 C 283.078125 316.496094 285.207031 314.691406 287.703125 314.691406 L 311.171875 314.691406 C 313.996094 314.691406 316.28125 316.984375 316.28125 319.804688 L 316.28125 368.390625 C 316.28125 371.210938 313.996094 373.503906 311.171875 373.503906 Z M 104.730469 363.28125 L 306.0625 363.28125 L 306.0625 324.917969 L 291.308594 324.917969 C 288.921875 329.46875 284.171875 332.476562 278.785156 332.476562 L 174.960938 332.476562 C 169.570312 332.476562 164.824219 329.46875 162.4375 324.917969 L 104.730469 324.917969 Z M 104.730469 363.28125 " fill-opacity="1" fill-rule="nonzero"/><path fill="#000000" d="M 205.453125 396.355469 L 189.980469 396.355469 C 187.160156 396.355469 184.871094 394.066406 184.871094 391.246094 C 184.871094 388.421875 187.160156 386.132812 189.980469 386.132812 L 205.453125 386.132812 C 208.273438 386.132812 210.5625 388.421875 210.5625 391.246094 C 210.5625 394.066406 208.273438 396.355469 205.453125 396.355469 Z M 205.453125 396.355469 " fill-opacity="1" fill-rule="nonzero"/><path fill="#000000" d="M 246.105469 396.355469 L 230.640625 396.355469 C 227.816406 396.355469 225.527344 394.066406 225.527344 391.246094 C 225.527344 388.421875 227.816406 386.132812 230.640625 386.132812 L 246.105469 386.132812 C 248.929688 386.132812 251.214844 388.421875 251.214844 391.246094 C 251.214844 394.066406 248.929688 396.355469 246.105469 396.355469 Z M 246.105469 396.355469 " fill-opacity="1" fill-rule="nonzero"/><path fill="#000000" d="M 286.761719 396.355469 L 271.292969 396.355469 C 268.46875 396.355469 266.183594 394.066406 266.183594 391.246094 C 266.183594 388.421875 268.46875 386.132812 271.292969 386.132812 L 286.761719 386.132812 C 289.585938 386.132812 291.871094 388.421875 291.871094 391.246094 C 291.871094 394.066406 289.585938 396.355469 286.761719 396.355469 Z M 286.761719 396.355469 " fill-opacity="1" fill-rule="nonzero"/><path fill="#000000" d="M 205.453125 415.96875 L 189.980469 415.96875 C 187.160156 415.96875 184.871094 413.683594 184.871094 410.859375 C 184.871094 408.035156 187.160156 405.746094 189.980469 405.746094 L 205.453125 405.746094 C 208.273438 405.746094 210.5625 408.035156 210.5625 410.859375 C 210.5625 413.683594 208.273438 415.96875 205.453125 415.96875 Z M 205.453125 415.96875 " fill-opacity="1" fill-rule="nonzero"/><path fill="#000000" d="M 246.105469 415.96875 L 230.640625 415.96875 C 227.816406 415.96875 225.527344 413.683594 225.527344 410.859375 C 225.527344 408.035156 227.816406 405.746094 230.640625 405.746094 L 246.105469 405.746094 C 248.929688 405.746094 251.214844 408.035156 251.214844 410.859375 C 251.214844 413.683594 248.929688 415.96875 246.105469 415.96875 Z M 246.105469 415.96875 " fill-opacity="1" fill-rule="nonzero"/><path fill="#000000" d="M 286.761719 415.96875 L 271.292969 415.96875 C 268.46875 415.96875 266.183594 413.683594 266.183594 410.859375 C 266.183594 408.035156 268.46875 405.746094 271.292969 405.746094 L 286.761719 405.746094 C 289.585938 405.746094 291.871094 408.035156 291.871094 410.859375 C 291.871094 413.683594 289.585938 415.96875 286.761719 415.96875 Z M 286.761719 415.96875 " fill-opacity="1" fill-rule="nonzero"/><path fill="#000000" d="M 205.453125 435.585938 L 189.980469 435.585938 C 187.160156 435.585938 184.871094 433.296875 184.871094 430.472656 C 184.871094 427.648438 187.160156 425.363281 189.980469 425.363281 L 205.453125 425.363281 C 208.273438 425.363281 210.5625 427.648438 210.5625 430.472656 C 210.5625 433.296875 208.273438 435.585938 205.453125 435.585938 Z M 205.453125 435.585938 " fill-opacity="1" fill-rule="nonzero"/><path fill="#000000" d="M 246.105469 435.585938 L 230.640625 435.585938 C 227.816406 435.585938 225.527344 433.296875 225.527344 430.472656 C 225.527344 427.648438 227.816406 425.363281 230.640625 425.363281 L 246.105469 425.363281 C 248.929688 425.363281 251.214844 427.648438 251.214844 430.472656 C 251.214844 433.296875 248.929688 435.585938 246.105469 435.585938 Z M 246.105469 435.585938 " fill-opacity="1" fill-rule="nonzero"/><path fill="#000000" d="M 286.761719 435.585938 L 271.292969 435.585938 C 268.46875 435.585938 266.183594 433.296875 266.183594 430.472656 C 266.183594 427.648438 268.46875 425.363281 271.292969 425.363281 L 286.761719 425.363281 C 289.585938 425.363281 291.871094 427.648438 291.871094 430.472656 C 291.871094 433.296875 289.585938 435.585938 286.761719 435.585938 Z M 286.761719 435.585938 " fill-opacity="1" fill-rule="nonzero"/><path fill="#000000" d="M 151.703125 426.945312 L 109.84375 426.945312 C 107.019531 426.945312 104.730469 424.660156 104.730469 421.835938 C 104.730469 419.011719 107.019531 416.722656 109.84375 416.722656 L 146.589844 416.722656 L 146.589844 396.355469 L 116.566406 396.355469 C 113.742188 396.355469 111.457031 394.066406 111.457031 391.246094 C 111.457031 388.421875 113.742188 386.132812 116.566406 386.132812 L 151.703125 386.132812 C 154.523438 386.132812 156.8125 388.421875 156.8125 391.246094 L 156.8125 421.835938 C 156.8125 424.660156 154.523438 426.945312 151.703125 426.945312 Z M 151.703125 426.945312 " fill-opacity="1" fill-rule="nonzero"/><path fill="#000000" d="M 196.933594 300.34375 C 195.628906 300.34375 194.316406 299.84375 193.320312 298.84375 C 191.324219 296.847656 191.324219 293.613281 193.320312 291.617188 L 223.257812 261.664062 C 225.253906 259.667969 228.488281 259.667969 230.484375 261.664062 C 232.480469 263.660156 232.480469 266.898438 230.484375 268.894531 L 200.546875 298.84375 C 199.546875 299.84375 198.238281 300.34375 196.933594 300.34375 Z M 196.933594 300.34375 " fill-opacity="1" fill-rule="nonzero"/><path fill="#000000" d="M 226.871094 308.359375 C 225.5625 308.359375 224.257812 307.863281 223.257812 306.863281 C 221.261719 304.867188 221.261719 301.632812 223.257812 299.636719 L 239.894531 282.996094 C 241.894531 281 245.128906 281.003906 247.121094 282.996094 C 249.117188 284.992188 249.117188 288.230469 247.121094 290.226562 L 230.484375 306.863281 C 229.488281 307.863281 228.175781 308.359375 226.871094 308.359375 Z M 226.871094 308.359375 " fill-opacity="1" fill-rule="nonzero"/><g fill="#000000" fill-opacity="1"><g transform="translate(371.590151, 371.736079)"><g><path d="M 54.359375 -61.390625 C 53.972656 -64.992188 52.351562 -67.800781 49.5 -69.8125 C 46.644531 -71.832031 42.945312 -72.84375 38.40625 -72.84375 C 35.207031 -72.84375 32.460938 -72.359375 30.171875 -71.390625 C 27.890625 -70.421875 26.140625 -69.109375 24.921875 -67.453125 C 23.710938 -65.804688 23.09375 -63.921875 23.0625 -61.796875 C 23.0625 -60.035156 23.46875 -58.503906 24.28125 -57.203125 C 25.09375 -55.910156 26.203125 -54.816406 27.609375 -53.921875 C 29.015625 -53.023438 30.570312 -52.273438 32.28125 -51.671875 C 33.988281 -51.066406 35.710938 -50.554688 37.453125 -50.140625 L 45.390625 -48.15625 C 48.585938 -47.414062 51.664062 -46.410156 54.625 -45.140625 C 57.59375 -43.867188 60.253906 -42.269531 62.609375 -40.34375 C 64.960938 -38.414062 66.828125 -36.085938 68.203125 -33.359375 C 69.585938 -30.628906 70.28125 -27.429688 70.28125 -23.765625 C 70.28125 -18.804688 69.007812 -14.445312 66.46875 -10.6875 C 63.9375 -6.925781 60.28125 -3.988281 55.5 -1.875 C 50.71875 0.226562 44.9375 1.28125 38.15625 1.28125 C 31.570312 1.28125 25.859375 0.257812 21.015625 -1.78125 C 16.179688 -3.820312 12.40625 -6.796875 9.6875 -10.703125 C 6.976562 -14.617188 5.515625 -19.390625 5.296875 -25.015625 L 20.375 -25.015625 C 20.59375 -22.066406 21.5 -19.613281 23.09375 -17.65625 C 24.695312 -15.695312 26.785156 -14.234375 29.359375 -13.265625 C 31.941406 -12.304688 34.832031 -11.828125 38.03125 -11.828125 C 41.363281 -11.828125 44.289062 -12.328125 46.8125 -13.328125 C 49.332031 -14.335938 51.304688 -15.742188 52.734375 -17.546875 C 54.171875 -19.347656 54.90625 -21.460938 54.9375 -23.890625 C 54.90625 -26.097656 54.253906 -27.925781 52.984375 -29.375 C 51.722656 -30.820312 49.953125 -32.03125 47.671875 -33 C 45.398438 -33.976562 42.75 -34.859375 39.71875 -35.640625 L 30.09375 -38.109375 C 23.125 -39.898438 17.617188 -42.617188 13.578125 -46.265625 C 9.535156 -49.921875 7.515625 -54.78125 7.515625 -60.84375 C 7.515625 -65.832031 8.875 -70.203125 11.59375 -73.953125 C 14.3125 -77.703125 18.007812 -80.613281 22.6875 -82.6875 C 27.375 -84.769531 32.679688 -85.8125 38.609375 -85.8125 C 44.617188 -85.8125 49.890625 -84.769531 54.421875 -82.6875 C 58.953125 -80.613281 62.515625 -77.734375 65.109375 -74.046875 C 67.703125 -70.367188 69.035156 -66.148438 69.109375 -61.390625 Z M 54.359375 -61.390625 "/></g></g></g><g fill="#000000" fill-opacity="1"><g transform="translate(447.156181, 371.736079)"><g><path d="M 35.796875 1.234375 C 29.429688 1.234375 23.941406 -0.09375 19.328125 -2.75 C 14.710938 -5.40625 11.160156 -9.175781 8.671875 -14.0625 C 6.191406 -18.957031 4.953125 -24.726562 4.953125 -31.375 C 4.953125 -37.90625 6.195312 -43.644531 8.6875 -48.59375 C 11.1875 -53.539062 14.679688 -57.398438 19.171875 -60.171875 C 23.671875 -62.941406 28.953125 -64.328125 35.015625 -64.328125 C 38.921875 -64.328125 42.617188 -63.695312 46.109375 -62.4375 C 49.597656 -61.1875 52.6875 -59.25 55.375 -56.625 C 58.0625 -54.007812 60.175781 -50.679688 61.71875 -46.640625 C 63.257812 -42.609375 64.03125 -37.8125 64.03125 -32.25 L 64.03125 -27.65625 L 11.984375 -27.65625 L 11.984375 -37.734375 L 49.6875 -37.734375 C 49.65625 -40.609375 49.035156 -43.164062 47.828125 -45.40625 C 46.617188 -47.65625 44.929688 -49.425781 42.765625 -50.71875 C 40.597656 -52.007812 38.082031 -52.65625 35.21875 -52.65625 C 32.15625 -52.65625 29.46875 -51.914062 27.15625 -50.4375 C 24.84375 -48.96875 23.046875 -47.039062 21.765625 -44.65625 C 20.484375 -42.28125 19.828125 -39.671875 19.796875 -36.828125 L 19.796875 -28.03125 C 19.796875 -24.332031 20.472656 -21.164062 21.828125 -18.53125 C 23.179688 -15.90625 25.066406 -13.894531 27.484375 -12.5 C 29.910156 -11.113281 32.75 -10.421875 36 -10.421875 C 38.175781 -10.421875 40.144531 -10.726562 41.90625 -11.34375 C 43.675781 -11.96875 45.207031 -12.882812 46.5 -14.09375 C 47.800781 -15.3125 48.78125 -16.816406 49.4375 -18.609375 L 63.40625 -17.03125 C 62.53125 -13.332031 60.859375 -10.113281 58.390625 -7.375 C 55.921875 -4.632812 52.769531 -2.515625 48.9375 -1.015625 C 45.113281 0.484375 40.734375 1.234375 35.796875 1.234375 Z M 35.796875 1.234375 "/></g></g></g><g fill="#000000" fill-opacity="1"><g transform="translate(516.149458, 371.736079)"><g><path d="M 22.65625 -84.65625 L 22.65625 0 L 7.6875 0 L 7.6875 -84.65625 Z M 22.65625 -84.65625 "/></g></g></g><g fill="#000000" fill-opacity="1"><g transform="translate(546.491609, 371.736079)"><g><path d="M 22.65625 -84.65625 L 22.65625 0 L 7.6875 0 L 7.6875 -84.65625 Z M 22.65625 -84.65625 "/></g></g></g><g fill="#000000" fill-opacity="1"><g transform="translate(371.590151, 495.420032)"><g><path d="M 4.625 -71.796875 L 4.625 -84.65625 L 72.171875 -84.65625 L 72.171875 -71.796875 L 46.015625 -71.796875 L 46.015625 0 L 30.796875 0 L 30.796875 -71.796875 Z M 4.625 -71.796875 "/></g></g></g><g fill="#000000" fill-opacity="1"><g transform="translate(441.782221, 495.420032)"><g><path d="M 7.6875 0 L 7.6875 -63.5 L 22.203125 -63.5 L 22.203125 -52.90625 L 22.859375 -52.90625 C 24.015625 -56.570312 26.003906 -59.40625 28.828125 -61.40625 C 31.648438 -63.40625 34.882812 -64.40625 38.53125 -64.40625 C 39.351562 -64.40625 40.28125 -64.367188 41.3125 -64.296875 C 42.34375 -64.234375 43.207031 -64.128906 43.90625 -63.984375 L 43.90625 -50.21875 C 43.269531 -50.445312 42.269531 -50.648438 40.90625 -50.828125 C 39.539062 -51.003906 38.222656 -51.09375 36.953125 -51.09375 C 34.222656 -51.09375 31.773438 -50.503906 29.609375 -49.328125 C 27.453125 -48.160156 25.753906 -46.539062 24.515625 -44.46875 C 23.273438 -42.40625 22.65625 -40.023438 22.65625 -37.328125 L 22.65625 0 Z M 7.6875 0 "/></g></g></g><g fill="#000000" fill-opacity="1"><g transform="translate(486.758067, 495.420032)"><g><path d="M 25.953125 1.28125 C 21.929688 1.28125 18.316406 0.554688 15.109375 -0.890625 C 11.898438 -2.335938 9.363281 -4.476562 7.5 -7.3125 C 5.644531 -10.15625 4.71875 -13.65625 4.71875 -17.8125 C 4.71875 -21.394531 5.378906 -24.359375 6.703125 -26.703125 C 8.023438 -29.046875 9.828125 -30.921875 12.109375 -32.328125 C 14.398438 -33.734375 16.984375 -34.800781 19.859375 -35.53125 C 22.742188 -36.257812 25.726562 -36.789062 28.8125 -37.125 C 32.53125 -37.507812 35.546875 -37.859375 37.859375 -38.171875 C 40.179688 -38.492188 41.867188 -38.988281 42.921875 -39.65625 C 43.984375 -40.332031 44.515625 -41.390625 44.515625 -42.828125 L 44.515625 -43.078125 C 44.515625 -46.191406 43.59375 -48.601562 41.75 -50.3125 C 39.90625 -52.019531 37.242188 -52.875 33.765625 -52.875 C 30.109375 -52.875 27.210938 -52.070312 25.078125 -50.46875 C 22.941406 -48.875 21.5 -46.988281 20.75 -44.8125 L 6.78125 -46.796875 C 7.882812 -50.648438 9.703125 -53.878906 12.234375 -56.484375 C 14.765625 -59.085938 17.863281 -61.046875 21.53125 -62.359375 C 25.195312 -63.671875 29.25 -64.328125 33.6875 -64.328125 C 36.75 -64.328125 39.796875 -63.96875 42.828125 -63.25 C 45.859375 -62.53125 48.625 -61.347656 51.125 -59.703125 C 53.632812 -58.066406 55.65625 -55.84375 57.1875 -53.03125 C 58.71875 -50.21875 59.484375 -46.707031 59.484375 -42.5 L 59.484375 0 L 45.09375 0 L 45.09375 -8.71875 L 44.609375 -8.71875 C 43.691406 -6.957031 42.410156 -5.3125 40.765625 -3.78125 C 39.128906 -2.25 37.078125 -1.019531 34.609375 -0.09375 C 32.148438 0.820312 29.265625 1.28125 25.953125 1.28125 Z M 29.84375 -9.71875 C 32.84375 -9.71875 35.445312 -10.316406 37.65625 -11.515625 C 39.863281 -12.710938 41.566406 -14.300781 42.765625 -16.28125 C 43.960938 -18.269531 44.5625 -20.4375 44.5625 -22.78125 L 44.5625 -30.265625 C 44.09375 -29.878906 43.300781 -29.519531 42.1875 -29.1875 C 41.070312 -28.851562 39.820312 -28.5625 38.4375 -28.3125 C 37.0625 -28.0625 35.695312 -27.835938 34.34375 -27.640625 C 33 -27.453125 31.832031 -27.289062 30.84375 -27.15625 C 28.601562 -26.851562 26.601562 -26.359375 24.84375 -25.671875 C 23.082031 -24.984375 21.691406 -24.023438 20.671875 -22.796875 C 19.648438 -21.566406 19.140625 -19.988281 19.140625 -18.0625 C 19.140625 -15.3125 20.144531 -13.234375 22.15625 -11.828125 C 24.164062 -10.421875 26.726562 -9.71875 29.84375 -9.71875 Z M 29.84375 -9.71875 "/></g></g></g><g fill="#000000" fill-opacity="1"><g transform="translate(553.643112, 495.420032)"><g><path d="M 35.390625 1.234375 C 29.046875 1.234375 23.609375 -0.15625 19.078125 -2.9375 C 14.546875 -5.71875 11.054688 -9.566406 8.609375 -14.484375 C 6.171875 -19.410156 4.953125 -25.082031 4.953125 -31.5 C 4.953125 -37.945312 6.191406 -43.644531 8.671875 -48.59375 C 11.160156 -53.539062 14.671875 -57.398438 19.203125 -60.171875 C 23.734375 -62.941406 29.097656 -64.328125 35.296875 -64.328125 C 40.453125 -64.328125 45.019531 -63.378906 49 -61.484375 C 52.988281 -59.597656 56.164062 -56.9375 58.53125 -53.5 C 60.90625 -50.070312 62.253906 -46.070312 62.578125 -41.5 L 48.28125 -41.5 C 47.707031 -44.5625 46.335938 -47.117188 44.171875 -49.171875 C 42.003906 -51.222656 39.117188 -52.25 35.515625 -52.25 C 32.453125 -52.25 29.757812 -51.425781 27.4375 -49.78125 C 25.125 -48.144531 23.328125 -45.796875 22.046875 -42.734375 C 20.765625 -39.679688 20.125 -36.019531 20.125 -31.75 C 20.125 -27.414062 20.757812 -23.695312 22.03125 -20.59375 C 23.300781 -17.5 25.085938 -15.117188 27.390625 -13.453125 C 29.691406 -11.785156 32.398438 -10.953125 35.515625 -10.953125 C 37.710938 -10.953125 39.6875 -11.367188 41.4375 -12.203125 C 43.1875 -13.046875 44.65625 -14.265625 45.84375 -15.859375 C 47.03125 -17.460938 47.84375 -19.410156 48.28125 -21.703125 L 62.578125 -21.703125 C 62.222656 -17.210938 60.898438 -13.238281 58.609375 -9.78125 C 56.328125 -6.320312 53.210938 -3.617188 49.265625 -1.671875 C 45.328125 0.265625 40.703125 1.234375 35.390625 1.234375 Z M 35.390625 1.234375 "/></g></g></g><g fill="#000000" fill-opacity="1"><g transform="translate(620.858849, 495.420032)"><g><path d="M 21.328125 -19.921875 L 21.28125 -37.984375 L 23.6875 -37.984375 L 46.5 -63.5 L 63.984375 -63.5 L 35.921875 -32.25 L 32.828125 -32.25 Z M 7.6875 0 L 7.6875 -84.65625 L 22.65625 -84.65625 L 22.65625 0 Z M 47.53125 0 L 26.875 -28.890625 L 36.953125 -39.4375 L 65.4375 0 Z M 47.53125 0 "/></g></g></g></svg>